<?xml version="1.0" encoding="utf-8"?>
<!-- Generator: Adobe Illustrator 25.0.1, SVG Export Plug-In . SVG Version: 6.00 Build 0)  -->
<svg version="1.1" id="Capa_1" xmlns="http://www.w3.org/2000/svg" xmlns:xlink="http://www.w3.org/1999/xlink" x="0px" y="0px"
	 width="128px" height="128px" viewBox="0 0 128 128" enable-background="new 0 0 128 128" xml:space="preserve" shape-rendering="crispEdges">
<g>
	<g id="ref_1_">
	</g>
</g>
<linearGradient id="SVGID_1_" gradientUnits="userSpaceOnUse" x1="904" y1="2632" x2="904" y2="2560.6218" gradientTransform="matrix(1 0 0 1 -840 -2528)">
	<stop  offset="0.0169" style="stop-color:#FFC529"/>
	<stop  offset="1" style="stop-color:#FFDA6E"/>
</linearGradient>
<path fill="url(#SVGID_1_)" d="M17.074,32.622h93.852c2.802,0,5.074,2.222,5.074,4.961v61.533c0,2.747-2.217,4.883-5.074,4.883
	H17.074C14.26,104.043,12,101.907,12,99.159V37.418C12,34.802,14.217,32.622,17.074,32.622z"/>
<linearGradient id="SVGID_2_" gradientUnits="userSpaceOnUse" x1="877.5845" y1="2569.374" x2="877.5845" y2="2552.0581" gradientTransform="matrix(1 0 0 1 -840 -2528)">
	<stop  offset="0.0169" style="stop-color:#D18B00"/>
	<stop  offset="1" style="stop-color:#E09F00"/>
</linearGradient>
<path fill="url(#SVGID_2_)" d="M63.169,32.787c0,0-6.78,5.844-8.613,7.283c-1.834,1.352-5.032,1.352-5.032,1.352H12V28.6
	c0,0,0-2.093,1.535-3.445c1.194-1.09,2.729-1.09,3.454-1.09c3.241-0.087,15.606-0.087,32.62,0c0,0,3.241,0,5.074,1.395
	C56.517,26.856,63.169,32.787,63.169,32.787z"/>
</svg>
