<?xml version="1.0" encoding="utf-8"?>
<!DOCTYPE svg PUBLIC "-//W3C//DTD SVG 1.1//EN" "http://www.w3.org/Graphics/SVG/1.1/DTD/svg11.dtd">
<svg version="1.1" id="Layer_1" xmlns="http://www.w3.org/2000/svg" xmlns:xlink="http://www.w3.org/1999/xlink" x="0px" y="0px"
	 width="26px" height="31px" viewBox="0 0 26 31" enable-background="new 0 0 124 33" xml:space="preserve">
<path fill="#179BD7" d="M23.048,7.667L23.048,7.667L23.048,7.667c-0.028,0.179-0.06,0.362-0.096,0.55
	c-1.237,6.351-5.469,8.545-10.874,8.545H9.326c-0.661,0-1.218,0.48-1.321,1.132l0,0l0,0L6.596,26.83l-0.399,2.533
	c-0.067,0.428,0.263,0.814,0.695,0.814h4.881c0.578,0,1.069-0.42,1.16-0.99l0.048-0.248l0.919-5.832l0.059-0.32
	c0.09-0.572,0.582-0.992,1.16-0.992h0.73c4.729,0,8.431-1.92,9.513-7.476c0.452-2.321,0.218-4.259-0.978-5.622
	C24.022,8.286,23.573,7.945,23.048,7.667z"/>
<path fill="#222D65" d="M21.754,7.151c-0.189-0.055-0.384-0.105-0.584-0.15c-0.201-0.044-0.407-0.083-0.619-0.117
	c-0.742-0.12-1.555-0.177-2.426-0.177h-7.352c-0.181,0-0.353,0.041-0.507,0.115C9.927,6.985,9.675,7.306,9.614,7.699L8.05,17.605
	l-0.045,0.289c0.103-0.652,0.66-1.132,1.321-1.132h2.752c5.405,0,9.637-2.195,10.874-8.545c0.037-0.188,0.068-0.371,0.096-0.55
	c-0.313-0.166-0.652-0.308-1.017-0.429C21.941,7.208,21.848,7.179,21.754,7.151z"/>
<path fill="#253B80" d="M9.614,7.699c0.061-0.393,0.313-0.714,0.652-0.876c0.155-0.074,0.326-0.115,0.507-0.115h7.352
	c0.871,0,1.684,0.057,2.426,0.177c0.212,0.034,0.418,0.073,0.619,0.117c0.2,0.045,0.395,0.095,0.584,0.15
	c0.094,0.028,0.187,0.057,0.278,0.086c0.365,0.121,0.704,0.264,1.017,0.429c0.368-2.347-0.003-3.945-1.272-5.392
	C20.378,0.682,17.853,0,14.622,0h-9.38c-0.66,0-1.223,0.48-1.325,1.133L0.01,25.898c-0.077,0.49,0.301,0.932,0.795,0.932h5.791
	l1.454-9.225L9.614,7.699z"/>
</svg>
