<svg xmlns="http://www.w3.org/2000/svg" xmlns:xlink="http://www.w3.org/1999/xlink" viewBox="0 0 110 110"><defs><style>.cls-1{fill:url(#linear-gradient);}.cls-2{fill:url(#linear-gradient-2);}.cls-3{fill:url(#linear-gradient-3);}.cls-4{fill:url(#linear-gradient-4);}.cls-5{fill:none;}</style><linearGradient id="linear-gradient" x1="41.54" y1="8.1" x2="115.74" y2="64.62" gradientUnits="userSpaceOnUse"><stop offset="0" stop-color="#26abe8"/><stop offset="1" stop-color="#047ed5"/></linearGradient><linearGradient id="linear-gradient-2" x1="30.1" y1="9.67" x2="101.89" y2="25.74" gradientUnits="userSpaceOnUse"><stop offset="0" stop-color="#0a7bd2"/><stop offset="1" stop-color="#0b59a2"/></linearGradient><linearGradient id="linear-gradient-3" x1="13.92" y1="38.95" x2="88.12" y2="95.47" xlink:href="#linear-gradient"/><linearGradient id="linear-gradient-4" x1="12.42" y1="28.63" x2="84.21" y2="44.7" xlink:href="#linear-gradient-2"/></defs><g id="Layer_2" data-name="Layer 2"><g id="Layer_1-2" data-name="Layer 1"><path class="cls-1" d="M95.38,10H31.93a4.62,4.62,0,0,0-4.62,4.62v8.82H81.94a4.62,4.62,0,0,1,4.62,4.62V82.69h8.82A4.62,4.62,0,0,0,100,78.07V14.62A4.62,4.62,0,0,0,95.38,10Z"/><path class="cls-2" d="M95.38,10H31.93a4.62,4.62,0,0,0-4.62,4.62v8.82H81.94a4.6,4.6,0,0,1,4.46,3.48H100V14.62A4.62,4.62,0,0,0,95.38,10Z"/><rect class="cls-3" x="10" y="27.31" width="72.69" height="72.69" rx="4.62"/><path class="cls-4" d="M78.07,27.31H14.62A4.62,4.62,0,0,0,10,31.93v12.3H82.69V31.93A4.62,4.62,0,0,0,78.07,27.31Z"/><rect class="cls-5" width="110" height="110"/></g></g></svg>