<svg width="48" height="48" viewBox="0 0 48 48" fill="none" xmlns="http://www.w3.org/2000/svg">
<path d="M25.25 5.75C25.25 5.05964 24.6904 4.5 24 4.5C23.3096 4.5 22.75 5.05964 22.75 5.75V28.4822L17.8839 23.6161C17.3957 23.128 16.6043 23.128 16.1161 23.6161C15.628 24.1043 15.628 24.8957 16.1161 25.3839L23.1161 32.3839C23.6043 32.872 24.3957 32.872 24.8839 32.3839L31.8839 25.3839C32.372 24.8957 32.372 24.1043 31.8839 23.6161C31.3957 23.128 30.6043 23.128 30.1161 23.6161L25.25 28.4822V5.75Z" fill="url(#paint0_linear_4889_17863)"/>
<path d="M7 24C7 15.5475 13.1688 8.53571 21.25 7.22131V9.76046C14.5569 11.0454 9.5 16.9322 9.5 24C9.5 32.0082 15.9919 38.5 24 38.5C32.0081 38.5 38.5 32.0082 38.5 24C38.5 16.9322 33.4431 11.0454 26.75 9.76046V7.22131C34.8312 8.53571 41 15.5475 41 24C41 33.3889 33.3888 41 24 41C14.6112 41 7 33.3889 7 24Z" fill="url(#paint1_linear_4889_17863)"/>
<defs>
<linearGradient id="paint0_linear_4889_17863" x1="29.4617" y1="4.1159" x2="18.5804" y2="40.568" gradientUnits="userSpaceOnUse">
<stop stop-color="#9F9F9F"/>
<stop offset="1" stop-color="#5F5F5F"/>
</linearGradient>
<linearGradient id="paint1_linear_4889_17863" x1="29.4617" y1="4.1159" x2="18.5804" y2="40.568" gradientUnits="userSpaceOnUse">
<stop stop-color="#9F9F9F"/>
<stop offset="1" stop-color="#5F5F5F"/>
</linearGradient>
</defs>
</svg>
