<?xml version="1.0" encoding="UTF-8" standalone="no"?>
<svg xmlns:rdf="http://www.w3.org/1999/02/22-rdf-syntax-ns#" xmlns="http://www.w3.org/2000/svg" height="76.949" width="130.6" version="1.1" xmlns:cc="http://creativecommons.org/ns#" xmlns:dc="http://purl.org/dc/elements/1.1/" viewBox="0 0 130.60352 76.948776">
<metadata>
<rdf:RDF>
<cc:Work rdf:about="">
<dc:format>image/svg+xml</dc:format>
<dc:type rdf:resource="http://purl.org/dc/dcmitype/StillImage"/>
<dc:title/>
</cc:Work>
</rdf:RDF>
</metadata>
<g fill="#527d97">
<path style="color-rendering:auto;text-decoration-color:#000000;color:#000000;isolation:auto;mix-blend-mode:normal;shape-rendering:auto;solid-color:#000000;block-progression:tb;text-decoration-line:none;text-decoration-style:solid;image-rendering:auto;white-space:normal;text-indent:0;text-transform:none" d="m3.5254 0c-1.7704 0.0019531-3.5254 2.002-3.5254 3.5215v58.826c0 1.7559 1.755 3.5137 3.5273 3.5117h15.652v-4h-14c-0.5855-0.003-1.1793-0.592-1.1793-1.174v-55.506c0-0.5843 0.5938-1.182 1.1816-1.18h120.24c0.59766-0.00195 1.1797 0.5957 1.1816 1.1797v55.506c-0.002 0.58203-0.58398 1.1719-1.1816 1.1738h-100.6v4h102.25c1.5312 0.002 3.5274-1.7559 3.5293-3.5117v-58.828c0-1.518-1.99-3.518-3.52-3.52z" fill-rule="evenodd"/>
<path d="m19.33 49.9v-32.87h5.09v16.298l13.519-16.298h6.237l-12.228 14.111 12.452 18.759h-5.7969l-10.549-15.402-3.6342 4.0101v11.392z"/>
<path d="m63.384 21.52-4.6201 14.482 9.563-0.000252zm-3.0881-4.49h6.199l12.416 32.87h-6.1674l-3.0872-8.748h-12.883l-3.0872 8.748h-5.8291z"/>
<path d="m82.704 17.03h4.8062v28.52h14.24v4.03h-19.046z"/>
<path d="m106.09 17.03h4.8203v32.55h-4.8203z"/>
<path d="m2.4186 73.779v2.337h1.4894q0.74932 0 1.1079-0.28626 0.36317-0.29053 0.36317-0.8844 0-0.59814-0.36317-0.88013-0.3585-0.286-1.1078-0.286h-1.4894zm0-2.6233v1.9226h1.3745q0.68036 0 1.0114-0.23499 0.33559-0.23926 0.33559-0.72632 0-0.48279-0.33559-0.72205-0.33099-0.23926-1.0114-0.23926h-1.3745zm-0.9286-0.71h2.3721q1.0619 0 1.6366 0.41016 0.57463 0.41016 0.57463 1.1664 0 0.58533-0.29421 0.9314t-0.86425 0.43152q0.68496 0.13672 1.0619 0.57251 0.38156 0.43152 0.38156 1.0809 0 0.85449-0.6252 1.3202-0.6252 0.4657-1.7791 0.4657h-2.464v-6.3788z"/>
<path d="m7.6299 70.446h0.92712l1.7688 2.6233 1.756-2.6233h0.92712l-2.256 3.3411v3.0377h-0.86714v-3.0377z"/>
<path d="m21.333 71.031q-0.93994 0-1.4954 0.70068-0.55115 0.70068-0.55115 1.9098 0 1.2048 0.55115 1.9055 0.55542 0.70068 1.4954 0.70068 0.93994 0 1.4868-0.70068 0.55115-0.70068 0.55115-1.9055 0-1.2091-0.55115-1.9098-0.54688-0.70068-1.4868-0.70068zm0-0.70068q1.3416 0 2.1448 0.90149 0.80322 0.89722 0.80322 2.4097 0 1.5082-0.80322 2.4097-0.80322 0.89722-2.1448 0.89722-1.3458 0-2.1533-0.89722-0.80322-0.89722-0.80322-2.4097t0.80322-2.4097q0.8075-0.90149 2.1533-0.90149z"/>
<path d="m27.032 70.446h3.6658v0.72632h-2.8027v1.8799h2.5293v0.72632h-2.5293v3.0463h-0.86304v-6.3788z"/>
<path d="m33.274 70.446h3.6658v0.72632h-2.8027v1.8799h2.5293v0.72632h-2.5293v3.0463h-0.86304v-6.3788z"/>
<path d="m38.915 70.446h4.0332v0.72632h-3.1702v1.8884h3.0377v0.72632h-3.0377v2.3114h3.2471v0.72632h-4.1101v-6.3788z"/>
<path d="m45.552 70.446h1.1621l2.8284 5.3363v-5.3363h0.8374v6.3788h-1.1621l-2.8284-5.3363v5.3363h-0.8374v-6.3788z"/>
<path d="m57.521 70.655v0.84168q-0.49133-0.23498-0.92712-0.35034t-0.84168-0.11536q-0.70496 0-1.0895 0.27344-0.38025 0.27344-0.38025 0.77759 0 0.42297 0.25208 0.64087 0.25635 0.21362 0.96558 0.34607l0.52124 0.10681q0.96558 0.18372 1.4227 0.64941 0.46142 0.46143 0.46142 1.239 0 0.92712-0.62378 1.4056-0.61951 0.47852-1.8201 0.47852-0.45288 0-0.96558-0.10254-0.50842-0.10254-1.0553-0.30334v-0.88867q0.52551 0.2948 1.0297 0.44434 0.50415 0.14954 0.99121 0.14954 0.73914 0 1.1407-0.29053 0.40161-0.29053 0.40161-0.82886 0-0.46997-0.29053-0.73486-0.286-0.265-0.944-0.397l-0.52551-0.10254q-0.96558-0.19226-1.3971-0.60242t-0.43152-1.1407q0-0.84595 0.59387-1.333 0.59814-0.48706 1.6449-0.48706 0.44861 0 0.91431 0.08118t0.95276 0.24353z"/>
<path d="m59.951 70.446h0.86304v6.3788h-0.86304v-6.3788z"/>
<path d="m65.476 76.825-2.4353-6.3788h0.90149l2.0209 5.3705 2.0251-5.3705h0.89722l-2.431 6.3788h-0.97839z"/>
<path d="m70.313 70.446h4.0332v0.72632h-3.1702v1.8884h3.0377v0.72632h-3.0377v2.3114h3.2471v0.72632h-4.1101v-6.3788z"/>
<path d="m84.061 70.655v0.84168q-0.49133-0.23498-0.92712-0.35034t-0.84168-0.11536q-0.70496 0-1.0895 0.27344-0.38025 0.27344-0.38025 0.77759 0 0.42297 0.25208 0.64087 0.25635 0.21362 0.96558 0.34607l0.52124 0.10681q0.96558 0.18372 1.4227 0.64941 0.46142 0.46143 0.46142 1.239 0 0.92712-0.62378 1.4056-0.61951 0.47852-1.8201 0.47852-0.45288 0-0.96558-0.10254-0.50842-0.10254-1.0553-0.30334v-0.88867q0.52551 0.2948 1.0297 0.44434 0.50415 0.14954 0.99121 0.14954 0.73914 0 1.1407-0.29053 0.40161-0.29053 0.40161-0.82886 0-0.46997-0.29053-0.73486-0.286-0.265-0.944-0.397l-0.52551-0.10254q-0.96558-0.19226-1.3971-0.60242t-0.43152-1.1407q0-0.84595 0.59387-1.333 0.59814-0.48706 1.6449-0.48706 0.44861 0 0.91431 0.08118t0.95276 0.24353z"/>
<path d="m86.391 70.446h4.0332v0.72632h-3.1702v1.8884h3.0377v0.72632h-3.0377v2.3114h3.2471v0.72632h-4.1101v-6.3788z"/>
<path d="m97.504 70.937v0.91003q-0.43579-0.40588-0.9314-0.60669-0.49133-0.2008-1.0468-0.2008-1.0938 0-1.6748 0.67078-0.58105 0.6665-0.58105 1.9312 0 1.2604 0.58105 1.9312 0.58106 0.6665 1.6748 0.6665 0.55542 0 1.0468-0.20081 0.49561-0.20081 0.9314-0.60669v0.90149q-0.45288 0.30762-0.9613 0.46143-0.50415 0.15381-1.0681 0.15381-1.4484 0-2.2815-0.8844-0.83313-0.88867-0.83313-2.4225 0-1.5381 0.83313-2.4225 0.83313-0.88867 2.2815-0.88867 0.57251 0 1.0767 0.15381 0.50842 0.14954 0.95276 0.45288z"/>
<path d="m99.848 70.446h0.86732v3.8751q0 1.0254 0.3717 1.4783 0.3717 0.44861 1.2048 0.44861 0.82886 0 1.2006-0.44861 0.3717-0.45288 0.3717-1.4783v-3.8751h0.86731v3.9819q0 1.2476-0.61951 1.8842-0.61523 0.6366-1.8201 0.6366-1.2091 0-1.8286-0.6366-0.61524-0.6366-0.61524-1.8842v-3.9819z"/>
<path d="m110.78 73.834q0.27771 0.09399 0.53833 0.40161 0.26489 0.30762 0.52978 0.84595l0.87586 1.7432h-0.92713l-0.81604-1.6364q-0.31616-0.64087-0.61523-0.85022-0.2948-0.20935-0.8075-0.20935h-0.93994v2.6959h-0.86304v-6.3788h1.9482q1.0938 0 1.6321 0.45715 0.53833 0.45715 0.53833 1.38 0 0.60242-0.28199 0.99976-0.27771 0.39734-0.81176 0.55115zm-2.1619-2.6788v2.2644h1.0852q0.62378 0 0.93994-0.28625 0.32043-0.29053 0.32043-0.85022t-0.32043-0.84168q-0.31616-0.28626-0.93994-0.28626h-1.0852z"/>
<path d="m114.84 70.446h0.86304v6.3788h-0.86304v-6.3788z"/>
<path d="m117.53 70.446h5.3961v0.72632h-2.2644v5.6525h-0.86731v-5.6525h-2.2644v-0.72632z"/>
<path d="m124.09 70.446h0.92712l1.7688 2.6233 1.756-2.6233h0.92712l-2.2559 3.3411v3.0377h-0.86731v-3.0377l-2.2559-3.3411z"/>
</g>
</svg>
