<?xml version="1.0" encoding="UTF-8" standalone="no"?>
<svg
   xmlns:dc="http://purl.org/dc/elements/1.1/"
   xmlns:cc="http://creativecommons.org/ns#"
   xmlns:rdf="http://www.w3.org/1999/02/22-rdf-syntax-ns#"
   xmlns:svg="http://www.w3.org/2000/svg"
   xmlns="http://www.w3.org/2000/svg"
   width="256"
   height="256"
   viewBox="0 0 256 256.00001"
   version="1.1"
   id="svg8">
  <defs
     id="defs2" />
  <metadata
     id="metadata5">
    <rdf:RDF>
      <cc:Work
         rdf:about="">
        <dc:format>image/svg+xml</dc:format>
        <dc:type
           rdf:resource="http://purl.org/dc/dcmitype/StillImage" />
        <dc:title></dc:title>
      </cc:Work>
    </rdf:RDF>
  </metadata>
  <circle
     r="98"
     style="opacity:1;fill:#ffffff;fill-opacity:1;stroke:none;stroke-width:1.96168292;stroke-linecap:round;stroke-linejoin:round;stroke-miterlimit:4;stroke-dasharray:none;stroke-opacity:1"
     id="path907"
     cx="128"
     cy="127.99999" />
  <path
     style="opacity:1;fill:#73ba25;fill-opacity:1;stroke:none;stroke-width:13.84463978;stroke-miterlimit:4;stroke-dasharray:none;stroke-opacity:1"
     d="M 128,16 A 112,112 0 0 0 16,128 112,112 0 0 0 128,240 112,112 0 0 0 240,128 112,112 0 0 0 128,16 Z m 0,14 a 97.998915,97.999659 0 0 1 98,98 97.998915,97.999659 0 0 1 -98,98 97.998915,97.999659 0 0 1 -73.763183,-33.66528 c 7.061098,-5.10706 18.640211,-3.80284 32.872314,-2.19605 6.934989,0.81013 14.833329,1.71669 23.008059,1.89869 22.82389,0.14504 47.40688,-4.07013 62.55908,-10.69825 9.80273,-4.26047 16.0584,-7.09653 19.97802,-10.66064 1.40972,-1.16811 2.14191,-3.06412 2.90357,-5.10474 l 0.53491,-1.34839 c 0.63379,-1.65411 1.56454,-5.13956 1.97388,-7.04956 0.16481,-0.8414 0.35765,-1.66518 -0.33838,-2.20288 -0.6363,-0.49168 -2.09863,0.38964 -2.09863,0.38964 -6.65366,4.00476 -23.28584,11.58939 -38.83667,11.91334 -19.30731,0.38942 -58.425755,-19.5443 -62.478764,-21.64942 -2.71264,-6.45909 -5.424076,-12.92177 -8.175778,-19.3645 27.986982,18.44043 51.201812,28.63435 68.971192,30.20631 19.78212,1.76219 35.20114,-9.03277 41.89404,-13.5232 0.87612,-0.58244 1.75161,-1.23425 2.55493,-1.86109 h 0.004 c 0.14375,-0.11214 0.47936,-0.40775 0.43579,-0.68017 -1.10961,-6.93392 -11.43969,-40.557897 -19.25854,-48.644534 -2.15437,-2.202672 -3.87946,-4.375411 -7.37256,-6.418947 -28.28567,-16.482787 -95.389828,-26.430355 -98.533705,-26.88574 0,0 -0.316184,-0.06492 -0.534912,0.14868 -0.169835,0.165952 -0.20337,0.485353 -0.20337,0.485353 0,0 -0.257656,13.903155 -0.297362,15.457768 -2.533803,-0.851287 -10.99503,-3.594596 -22.948243,-6.788093 A 97.998915,97.999659 0 0 1 128,30 Z m 20.42578,56.851078 c 0.4763,-0.0079 0.95442,-0.0035 1.43384,0.01199 15.81694,0.565582 28.24724,13.917972 27.70434,29.717522 -0.29835,7.66562 -3.50617,14.77959 -9.09692,19.98145 -5.60761,5.26668 -12.90665,7.97471 -20.61206,7.71607 -15.79992,-0.5826 -28.21547,-13.9073 -27.68555,-29.72095 0.28408,-7.66561 3.49191,-14.778768 9.09693,-19.996831 5.25711,-4.90819 12.01497,-7.59416 19.15942,-7.709222 z m 0.1897,8.457758 c -4.99469,0.0623 -9.69358,1.940689 -13.33862,5.359374 -3.88819,3.64661 -6.17999,8.5876 -6.34204,13.93677 -0.37225,11.05356 8.28161,20.35056 19.30981,20.75732 5.36323,0.16206 10.47533,-1.73499 14.38622,-5.38159 3.90522,-3.66361 6.15261,-8.6024 6.32325,-13.93163 0.37225,-11.05065 -8.28164,-20.337805 -19.33545,-20.729989 -0.33538,-0.01207 -0.6702,-0.01444 -1.00317,-0.01024 z m 4.27929,10.060794 c 4.91126,0 8.89014,2.64343 8.89014,5.93189 0,3.25718 -3.98164,5.91479 -8.89014,5.91479 -4.91139,0 -8.87817,-2.65746 -8.87817,-5.91479 0,-3.28846 3.96678,-5.93189 8.87817,-5.93189 z"
     id="path820-3-6" />
  <circle
     style="opacity:0.3;fill:#ffffff;fill-opacity:1;stroke:none;stroke-width:3.088377;stroke-miterlimit:4;stroke-dasharray:none;stroke-opacity:1"
     id="path872"
     cx="787.51135"
     cy="-1078.8389"
     r="0" />
</svg>
