<svg xmlns="http://www.w3.org/2000/svg" xmlns:svg="http://www.w3.org/2000/svg" xmlns:xlink="http://www.w3.org/1999/xlink" id="Capa_1" width="256" height="256" x="0" y="0" enable-background="new 0 0 256 256" shape-rendering="crispEdges" version="1.1" viewBox="0 0 256 256" xml:space="preserve"><g id="g61"><g id="Layer_1_1_" transform="matrix(0.98333333,0,0,1,5.0833333,-5.0000002)"><g id="g58"><linearGradient id="path45_1_" x1="306.017" x2="306.017" y1="1033.349" y2="863.763" gradientTransform="matrix(0.9833 0 0 1.0024 -175.9167 -810.8759)" gradientUnits="userSpaceOnUse"><stop offset=".017" style="stop-color:#ffc529"/><stop offset="1" style="stop-color:#ffda6e"/></linearGradient><path id="path45" fill="url(#path45_1_)" d="M16.592,55h216.815C239.804,55,245,60.175,245,66.568v146.864 c0,6.383-5.185,11.568-11.592,11.568H16.592C10.196,225,5,219.825,5,213.432V66.568C5,60.175,10.185,55,16.592,55z"/><linearGradient id="path52_1_" x1="242.81" x2="242.81" y1="889.207" y2="848.528" gradientTransform="matrix(0.9922 0 0 0.9833 -175.9251 -799.3776)" gradientUnits="userSpaceOnUse"><stop offset=".017" style="stop-color:#d18b00"/><stop offset="1" style="stop-color:#e09f00"/></linearGradient><path id="path52" fill="url(#path52_1_)" d="M125,55.074c0,0-15.924,13.633-20.173,16.78C100.578,75,93.141,75,93.141,75H5 V45.636c0,0,0-4.782,3.6-7.897c2.822-2.423,6.422-2.559,8.086-2.59c7.427-0.136,36.595-0.252,76.454,0c0,0,7.438,0,11.687,3.146 C109.076,41.441,125,55.074,125,55.074z"/></g></g></g></svg>