<svg width="200" height="200" viewBox="0 0 200 200" fill="none" xmlns="http://www.w3.org/2000/svg">
<g clip-path="url(#clip0_5152_1098)">
<circle cx="100" cy="100" r="100" fill="url(#paint0_linear_5152_1098)"/>
<path d="M89 44H64C50.7452 44 40 54.7452 40 68V132C40 145.255 50.7452 156 64 156H89V44Z" fill="url(#paint1_linear_5152_1098)"/>
<g filter="url(#filter0_ii_5152_1098)">
<path fill-rule="evenodd" clip-rule="evenodd" d="M64 44C50.7452 44 40 54.7452 40 68V132C40 145.255 50.7452 156 64 156H136C149.255 156 160 145.255 160 132V68C160 54.7452 149.255 44 136 44H64ZM50 68C50 60.268 56.268 54 64 54H79V146H64C56.268 146 50 139.732 50 132V68ZM89 146H136C143.732 146 150 139.732 150 132V68C150 60.268 143.732 54 136 54H89V146Z" fill="url(#paint2_linear_5152_1098)"/>
</g>
</g>
<defs>
<filter id="filter0_ii_5152_1098" x="40" y="44" width="120" height="116" filterUnits="userSpaceOnUse" color-interpolation-filters="sRGB">
<feFlood flood-opacity="0" result="BackgroundImageFix"/>
<feBlend mode="normal" in="SourceGraphic" in2="BackgroundImageFix" result="shape"/>
<feColorMatrix in="SourceAlpha" type="matrix" values="0 0 0 0 0 0 0 0 0 0 0 0 0 0 0 0 0 0 127 0" result="hardAlpha"/>
<feOffset dy="3"/>
<feGaussianBlur stdDeviation="3.5"/>
<feComposite in2="hardAlpha" operator="arithmetic" k2="-1" k3="1"/>
<feColorMatrix type="matrix" values="0 0 0 0 0.0666667 0 0 0 0 0.0627451 0 0 0 0 0.0588235 0 0 0 0.14 0"/>
<feBlend mode="normal" in2="shape" result="effect1_innerShadow_5152_1098"/>
<feColorMatrix in="SourceAlpha" type="matrix" values="0 0 0 0 0 0 0 0 0 0 0 0 0 0 0 0 0 0 127 0" result="hardAlpha"/>
<feOffset dy="4"/>
<feGaussianBlur stdDeviation="9.5"/>
<feComposite in2="hardAlpha" operator="arithmetic" k2="-1" k3="1"/>
<feColorMatrix type="matrix" values="0 0 0 0 0.0666667 0 0 0 0 0.0627451 0 0 0 0 0.0588235 0 0 0 0.14 0"/>
<feBlend mode="normal" in2="effect1_innerShadow_5152_1098" result="effect2_innerShadow_5152_1098"/>
</filter>
<linearGradient id="paint0_linear_5152_1098" x1="63.241" y1="6.47349" x2="144.074" y2="200.112" gradientUnits="userSpaceOnUse">
<stop stop-color="#999999" stop-opacity="0.2"/>
<stop offset="1" stop-color="#444444" stop-opacity="0.2"/>
</linearGradient>
<linearGradient id="paint1_linear_5152_1098" x1="73.8765" y1="51.6049" x2="25.126" y2="134.184" gradientUnits="userSpaceOnUse">
<stop stop-color="#333333"/>
<stop offset="1" stop-color="#222222"/>
</linearGradient>
<linearGradient id="paint2_linear_5152_1098" x1="125.806" y1="44" x2="89.559" y2="167.595" gradientUnits="userSpaceOnUse">
<stop stop-color="#999999"/>
<stop offset="1" stop-color="#7F7F7F"/>
<stop offset="1" stop-color="#777777"/>
</linearGradient>
<clipPath id="clip0_5152_1098">
<rect width="200" height="200" fill="white"/>
</clipPath>
</defs>
</svg>
